<?xml version="1.0" encoding="UTF-8" standalone="no" ?>
<!DOCTYPE svg PUBLIC "-//W3C//DTD SVG 1.1//EN" "http://www.w3.org/Graphics/SVG/1.1/DTD/svg11.dtd">
<svg xmlns="http://www.w3.org/2000/svg" xmlns:xlink="http://www.w3.org/1999/xlink" version="1.1" width="1280" height="1024" viewBox="0 0 1280 1024" xml:space="preserve">
<desc>Created with Fabric.js 5.3.0</desc>
<defs>
</defs>
<g transform="matrix(1 0 0 1 640 512)" id="background-logo"  >
<rect style="stroke: none; stroke-width: 0; stroke-dasharray: none; stroke-linecap: butt; stroke-dashoffset: 0; stroke-linejoin: miter; stroke-miterlimit: 4; fill: rgb(255,255,255); fill-opacity: 0; fill-rule: nonzero; opacity: 1;"  paint-order="stroke"  x="-640" y="-512" rx="0" ry="0" width="1280" height="1024" />
</g>
<g transform="matrix(2.496790918548207 0 0 2.4967909185482067 640 421.2729218705742)" id="logo-logo"  >
<g style=""  paint-order="stroke"   >
		<g transform="matrix(0.8312807904496291 0 0 0.8312807904496291 0 0)"  >
<path style="stroke: none; stroke-width: 1; stroke-dasharray: none; stroke-linecap: butt; stroke-dashoffset: 0; stroke-linejoin: miter; stroke-miterlimit: 4; fill: rgb(120,136,211); fill-rule: nonzero; opacity: 1;"  paint-order="stroke"  transform=" translate(-100, -100)" d="M 0 200 L 200 200 L 200 0 L 0 0 L 0 200 z M 10 10 L 190 10 L 190 190 L 10 190 L 10 10 z" stroke-linecap="round" />
</g>
</g>
</g>
<g transform="matrix(1.9211538461538462 0 0 1.9211538461538462 637.9916956293705 709.2010962287378)" id="text-logo"  >
<g style=""  paint-order="stroke"   >
		<g transform="matrix(1 0 0 1 5.684342e-14 0)" id="text-logo-path-0"  >
<path style="stroke: rgb(240,243,249); stroke-width: 0.9454545454545453; stroke-dasharray: none; stroke-linecap: butt; stroke-dashoffset: 0; stroke-linejoin: miter; stroke-miterlimit: 4; fill: rgb(120,136,211); fill-rule: nonzero; opacity: 1;"  paint-order="stroke"  transform=" translate(-223.99, 18.2)" d="M 11.18 -36.4 L 2.08 -36.4 L 2.08 0 L 7.8 0 L 7.8 -13.73 L 11.18 -13.73 C 18.15 -13.73 22.52 -18.41 22.52 -25.06 C 22.52 -32.03 17.84 -36.4 11.18 -36.4 Z M 11.18 -19.45 L 7.8 -19.45 L 7.8 -30.68 L 11.18 -30.68 C 15.13 -30.68 16.8 -29.12 16.8 -25.06 C 16.8 -21.11 15.24 -19.45 11.18 -19.45 Z M 47.32 -36.4 L 47.32 0 L 64.48 0 L 64.48 -5.72 L 53.04 -5.72 L 53.04 -36.4 Z M 94.02 -36.4 L 87.78 0 L 93.5 0 L 94.12 -3.64 L 101.87 -3.64 L 102.49 0 L 108.21 0 L 101.97 -36.4 Z M 95.11 -9.36 L 98.02 -26.26 L 100.88 -9.36 Z M 135.93 -15.08 L 135.93 0 L 141.65 0 L 141.65 -15.08 L 148.93 -36.4 L 142.69 -36.4 L 138.79 -21.84 L 134.89 -36.4 L 128.65 -36.4 Z M 173.47 -36.4 L 173.47 0 L 190.63 0 L 190.63 -5.72 L 179.19 -5.72 L 179.19 -15.86 L 189.59 -15.86 L 189.59 -21.58 L 179.19 -21.58 L 179.19 -30.68 L 190.63 -30.68 L 190.63 -36.4 Z M 227.14 -36.4 L 216.94 -36.4 L 216.94 0 L 222.66 0 L 222.66 -15.91 L 227.14 -15.91 C 230.41 -15.91 231.66 -14.72 231.66 -11.39 L 231.66 0 L 237.38 0 L 237.38 -11.39 C 237.38 -14.46 236.34 -17 234.52 -18.77 C 236.34 -20.59 237.38 -23.19 237.38 -26.16 C 237.38 -32.34 233.12 -36.4 227.14 -36.4 Z M 227.14 -21.63 L 222.66 -21.63 L 222.66 -30.68 L 227.14 -30.68 C 230.41 -30.68 231.66 -29.48 231.66 -26.16 C 231.66 -22.93 230.41 -21.63 227.14 -21.63 Z M 313.3 -36.4 L 293.02 -36.4 L 293.02 -30.68 L 300.3 -30.68 L 300.3 0 L 306.02 0 L 306.02 -30.68 L 313.3 -30.68 Z M 337.53 -36.4 L 337.53 0 L 354.69 0 L 354.69 -5.72 L 343.25 -5.72 L 343.25 -15.86 L 353.65 -15.86 L 353.65 -21.58 L 343.25 -21.58 L 343.25 -30.68 L 354.69 -30.68 L 354.69 -36.4 Z M 379.55 -26.73 L 379.55 -9.67 C 379.55 -3.74 383.6 0.52 389.79 0.52 C 395.72 0.52 399.98 -3.54 399.98 -9.67 L 399.98 -12.27 L 394.26 -12.27 L 394.26 -9.67 C 394.26 -6.4 393.02 -5.2 389.79 -5.2 C 386.46 -5.2 385.27 -6.45 385.27 -9.67 L 385.27 -26.73 C 385.27 -30.06 386.52 -31.2 389.79 -31.2 C 393.07 -31.2 394.26 -29.95 394.26 -26.73 L 394.26 -24.13 L 399.98 -24.13 L 399.98 -26.73 C 399.98 -32.66 395.93 -36.92 389.79 -36.92 C 383.86 -36.92 379.55 -32.97 379.55 -26.73 Z M 425.46 -36.4 L 425.46 0 L 431.18 0 L 431.18 -15.86 L 440.18 -15.86 L 440.18 0 L 445.9 0 L 445.9 -36.4 L 440.18 -36.4 L 440.18 -21.58 L 431.18 -21.58 L 431.18 -36.4 Z" stroke-linecap="round" />
</g>
</g>
</g>
<g transform="matrix(1.9211538461538462 0 0 1.9211538461538462 641.8553892858621 431.57991262543203)" id="tagline-e24f4837-2665-4e60-9256-dc5e55591794-logo"  >
<g style=""  paint-order="stroke"   >
		<g transform="matrix(1 0 0 1 0 0)" id="tagline-e24f4837-2665-4e60-9256-dc5e55591794-logo-path-0"  >
<path style="stroke: rgb(240,243,249); stroke-width: 2.2500000000000004; stroke-dasharray: none; stroke-linecap: butt; stroke-dashoffset: 0; stroke-linejoin: miter; stroke-miterlimit: 4; fill: rgb(120,136,211); fill-rule: nonzero; opacity: 1;"  paint-order="stroke"  transform=" translate(-23.415, 34.65)" d="M 21.29 -69.3 L 3.96 -69.3 L 3.96 0 L 14.85 0 L 14.85 -26.14 L 21.29 -26.14 C 34.55 -26.14 42.87 -35.05 42.87 -47.72 C 42.87 -60.98 33.96 -69.3 21.29 -69.3 Z M 21.29 -37.03 L 14.85 -37.03 L 14.85 -58.41 L 21.29 -58.41 C 28.81 -58.41 31.98 -55.44 31.98 -47.72 C 31.98 -40.19 29.01 -37.03 21.29 -37.03 Z" stroke-linecap="round" />
</g>
</g>
</g>
</svg>
